<?xml version="1.0" encoding="iso-8859-1"?>
<!-- Generator: Adobe Illustrator 19.0.0, SVG Export Plug-In . SVG Version: 6.00 Build 0)  -->
<svg version="1.1" id="Capa_1" xmlns="http://www.w3.org/2000/svg" xmlns:xlink="http://www.w3.org/1999/xlink" x="0px" y="0px"
	 viewBox="0 0 512 512" style="enable-background:new 0 0 512 512;" xml:space="preserve">
<g>
	<g>
		<path d="M467,0H45C20.187,0,0,20.187,0,45v423c0,24.673,19.767,44,45,44h422c25.233,0,45-19.327,45-44V45
			C512,20.187,491.813,0,467,0z M482,468c0,7.981-6.448,14-15,14H45c-8.552,0-15-6.019-15-14V45c0-8.271,6.729-15,15-15h422
			c8.271,0,15,6.729,15,15V468z"/>
	</g>
</g>
<g>
	<g>
		<path d="M436.312,224.181L287.819,75.688c-8.499-8.499-19.8-13.18-31.819-13.18c-12.019,0-23.32,4.681-31.819,13.18
			L75.687,224.181c-17.544,17.545-17.544,46.094-0.035,63.604l148.493,149.492c0.013,0.012,0.024,0.024,0.036,0.036
			c8.499,8.499,19.8,14.18,31.819,14.18s23.32-5.681,31.855-14.216L436.313,287.82C453.857,270.275,453.857,241.726,436.312,224.181
			z M415.063,266.642L266.606,416.099c-2.833,2.833-6.6,4.393-10.606,4.393c-3.998,0-7.757-1.553-10.588-4.375L96.901,266.607
			c-5.849-5.849-5.849-15.365-0.001-21.213L245.394,96.901c2.833-2.833,6.6-4.393,10.606-4.393s7.773,1.56,10.606,4.394
			l148.492,148.492C420.947,251.242,420.947,260.758,415.063,266.642z"/>
	</g>
</g>
<g>
	<g>
		<path d="M316,241c-8.271,0-15-6.729-15-15s6.729-15,15-15s15,6.729,15,15c0,8.284,6.716,15,15,15s15-6.716,15-15
			c0-24.813-20.187-45-45-45s-45,20.187-45,45s20.187,45,45,45c8.271,0,15,6.729,15,15s-6.729,15-15,15s-15-6.729-15-15
			c0-8.284-6.716-15-15-15s-15,6.716-15,15c0,24.813,20.187,45,45,45s45-20.187,45-45S340.813,241,316,241z"/>
	</g>
</g>
<g>
	<g>
		<path d="M211,181h-30c-8.284,0-15,6.716-15,15c0,14.518,0,105.386,0,120c0,8.284,6.716,15,15,15s15-6.716,15-15v-45h15
			c24.813,0,45-20.187,45-45S235.813,181,211,181z M211,241h-15v-30h15c8.271,0,15,6.729,15,15S219.271,241,211,241z"/>
	</g>
</g>
<g>
</g>
<g>
</g>
<g>
</g>
<g>
</g>
<g>
</g>
<g>
</g>
<g>
</g>
<g>
</g>
<g>
</g>
<g>
</g>
<g>
</g>
<g>
</g>
<g>
</g>
<g>
</g>
<g>
</g>
</svg>
