<?xml version="1.0" encoding="UTF-8" standalone="no" ?>
<!DOCTYPE svg PUBLIC "-//W3C//DTD SVG 1.1//EN" "http://www.w3.org/Graphics/SVG/1.1/DTD/svg11.dtd">
<svg xmlns="http://www.w3.org/2000/svg" xmlns:xlink="http://www.w3.org/1999/xlink" version="1.1" width="1280" height="1024" viewBox="0 0 1280 1024" xml:space="preserve">
<desc>Created with Fabric.js 5.3.0</desc>
<defs>
</defs>
<g transform="matrix(1 0 0 1 640 512)" id="background-logo"  >
<rect style="stroke: none; stroke-width: 0; stroke-dasharray: none; stroke-linecap: butt; stroke-dashoffset: 0; stroke-linejoin: miter; stroke-miterlimit: 4; fill: rgb(255,255,255); fill-opacity: 0; fill-rule: nonzero; opacity: 1;"  paint-order="stroke"  x="-640" y="-512" rx="0" ry="0" width="1280" height="1024" />
</g>
<g transform="matrix(1.9211538461538462 0 0 1.9211538461538462 795.6088465725081 467.85514006661714)" id="text-logo"  >
<g style=""  paint-order="stroke"   >
		<g transform="matrix(1 0 0 1 5.684342e-14 0)" id="text-logo-path-0"  >
<path style="stroke: rgb(35,31,32); stroke-width: 0; stroke-dasharray: none; stroke-linecap: butt; stroke-dashoffset: 0; stroke-linejoin: miter; stroke-miterlimit: 4; fill: rgb(255,87,88); fill-rule: nonzero; opacity: 1;"  paint-order="stroke"  transform=" translate(-239.005, 13.75)" d="M 10.34 -31.02 L 10.34 -23.43 L 20.18 -23.43 L 20.18 -16.77 L 10.34 -16.77 L 10.34 -6.66 L 23.48 -6.66 L 23.48 0 L 2.75 0 L 2.75 -33.88 L 10.34 -39.16 L 22.61 -39.16 L 22.61 -32.45 L 12.38 -32.45 L 10.34 -31.02 Z M 35.7 -21.12 L 35.7 0 L 28.43 0 L 28.43 -18.98 Q 28.43 -21.78 27.77 -23.32 Q 27.11 -24.86 25.68 -26.02 L 25.68 -26.02 L 31.73 -30.25 Q 33.77 -28.6 34.76 -26.46 L 34.76 -26.46 Q 38.83 -30.3 40.51 -30.3 Q 42.19 -30.3 45.57 -27.25 Q 48.95 -24.2 48.95 -21.23 L 48.95 -21.23 L 48.95 -10.62 Q 48.95 -7.81 49.61 -6.27 Q 50.27 -4.73 51.7 -3.58 L 51.7 -3.58 L 45.65 0.66 Q 41.69 -2.48 41.69 -8.25 L 41.69 -8.25 L 41.69 -20.46 Q 41.69 -21.39 40.7 -22.41 Q 39.71 -23.43 38.86 -23.43 Q 38 -23.43 35.7 -21.12 L 35.7 -21.12 Z M 67.13 -21.34 Q 66.72 -22 65.56 -22.71 Q 64.41 -23.43 63.8 -23.43 Q 63.2 -23.43 62.51 -22.71 Q 61.82 -22 61.6 -21.39 L 61.6 -21.39 Q 61.16 -20.52 61.16 -15.89 Q 61.16 -11.28 61.6 -10.45 L 61.6 -10.45 Q 61.82 -9.9 62.51 -9.16 Q 63.2 -8.42 63.8 -8.42 Q 64.41 -8.42 65.59 -9.16 Q 66.77 -9.9 67.16 -10.53 Q 67.54 -11.17 67.54 -15.92 Q 67.54 -20.68 67.13 -21.34 Z M 69.3 -29.64 L 74.69 -29.64 L 74.69 -1.81 Q 74.69 5.22 74.06 6.57 Q 73.42 7.92 69.63 10.84 Q 65.83 13.75 63.94 13.75 Q 62.04 13.75 59.18 11.85 Q 56.32 9.96 54.89 7.48 L 54.89 7.48 L 60.55 3.58 L 61.1 4.29 Q 63.14 6.88 63.94 6.88 Q 64.73 6.88 65.75 6.16 Q 66.77 5.45 67.13 4.65 Q 67.48 3.85 67.48 -2.09 L 67.48 -2.09 L 67.65 -4.24 Q 63.91 -1.54 62.56 -1.54 Q 61.21 -1.54 58.3 -4.46 Q 55.38 -7.37 54.78 -8.8 Q 54.17 -10.23 54.17 -15.89 Q 54.17 -21.56 54.78 -23.02 Q 55.38 -24.48 58.3 -27.39 Q 61.21 -30.3 62.75 -30.3 Q 64.3 -30.3 68.64 -26.79 L 68.64 -26.79 L 69.3 -29.64 Z M 78.81 -8.25 L 78.81 -29.64 L 86.07 -29.64 L 86.07 -10.62 Q 86.07 -7.81 86.73 -6.27 Q 87.39 -4.73 88.82 -3.58 L 88.82 -3.58 L 82.77 0.66 Q 78.81 -2.48 78.81 -8.25 L 78.81 -8.25 Z M 82.58 -41.14 Q 83.16 -41.14 85.25 -39.35 Q 87.34 -37.56 87.34 -36.93 Q 87.34 -36.3 85.22 -34.48 Q 83.1 -32.67 82.53 -32.67 Q 81.95 -32.67 79.86 -34.46 Q 77.77 -36.24 77.77 -36.88 Q 77.77 -37.51 79.89 -39.33 Q 82 -41.14 82.58 -41.14 Z M 99.66 -21.12 L 99.66 0 L 92.4 0 L 92.4 -18.98 Q 92.4 -21.78 91.74 -23.32 Q 91.08 -24.86 89.65 -26.02 L 89.65 -26.02 L 95.7 -30.25 Q 97.73 -28.6 98.72 -26.46 L 98.72 -26.46 Q 102.79 -30.3 104.47 -30.3 Q 106.15 -30.3 109.53 -27.25 Q 112.91 -24.2 112.91 -21.23 L 112.91 -21.23 L 112.91 -10.62 Q 112.91 -7.81 113.57 -6.27 Q 114.23 -4.73 115.66 -3.58 L 115.66 -3.58 L 109.61 0.66 Q 105.65 -2.48 105.65 -8.25 L 105.65 -8.25 L 105.65 -20.46 Q 105.65 -21.39 104.66 -22.41 Q 103.67 -23.43 102.82 -23.43 Q 101.97 -23.43 99.66 -21.12 L 99.66 -21.12 Z M 138.71 -14.9 L 138.71 -14.9 L 138.71 -12.93 L 125.4 -12.93 Q 125.4 -9.63 126.22 -7.7 L 126.22 -7.7 Q 126.5 -7.04 127.21 -6.35 Q 127.93 -5.67 128.7 -5.67 Q 129.47 -5.67 130.62 -6.99 Q 131.78 -8.3 132.44 -10.18 L 132.44 -10.18 L 138.1 -6.16 Q 136.62 -3.41 133.57 -1.38 Q 130.51 0.66 128.64 0.66 Q 126.77 0.66 123.23 -2.25 Q 119.68 -5.17 118.91 -6.79 Q 118.14 -8.42 118.14 -14.82 Q 118.14 -21.23 118.91 -22.85 Q 119.68 -24.48 123.23 -27.39 Q 126.77 -30.3 128.42 -30.3 Q 130.07 -30.3 133.62 -27.39 Q 137.17 -24.48 137.94 -22.85 Q 138.71 -21.23 138.71 -14.9 Z M 131.09 -21.81 Q 130.68 -22.55 129.83 -23.27 Q 128.97 -23.98 128.23 -23.98 Q 127.49 -23.98 126.55 -22.52 Q 125.62 -21.07 125.4 -18.15 L 125.4 -18.15 L 131.67 -18.15 Q 131.5 -21.07 131.09 -21.81 Z M 163.13 -14.9 L 163.13 -14.9 L 163.13 -12.93 L 149.82 -12.93 Q 149.82 -9.63 150.64 -7.7 L 150.64 -7.7 Q 150.92 -7.04 151.63 -6.35 Q 152.35 -5.67 153.12 -5.67 Q 153.89 -5.67 155.04 -6.99 Q 156.2 -8.3 156.86 -10.18 L 156.86 -10.18 L 162.52 -6.16 Q 161.04 -3.41 157.99 -1.38 Q 154.93 0.66 153.06 0.66 Q 151.19 0.66 147.65 -2.25 Q 144.1 -5.17 143.33 -6.79 Q 142.56 -8.42 142.56 -14.82 Q 142.56 -21.23 143.33 -22.85 Q 144.1 -24.48 147.65 -27.39 Q 151.19 -30.3 152.84 -30.3 Q 154.49 -30.3 158.04 -27.39 Q 161.59 -24.48 162.36 -22.85 Q 163.13 -21.23 163.13 -14.9 Z M 155.51 -21.81 Q 155.1 -22.55 154.25 -23.27 Q 153.39 -23.98 152.65 -23.98 Q 151.91 -23.98 150.97 -22.52 Q 150.04 -21.07 149.82 -18.15 L 149.82 -18.15 L 156.09 -18.15 Q 155.92 -21.07 155.51 -21.81 Z M 176.16 -21.12 L 176.16 0 L 168.9 0 L 168.9 -18.98 Q 168.9 -21.78 168.22 -23.35 Q 167.53 -24.91 166.15 -26.07 L 166.15 -26.07 L 172.2 -30.3 Q 174.18 -28.66 175.23 -26.46 L 175.23 -26.46 Q 179.3 -30.3 180.95 -30.3 L 180.95 -30.3 Q 182.05 -30.3 184.3 -28.27 Q 186.56 -26.23 186.94 -23.82 L 186.94 -23.82 L 181.06 -19.58 Q 181 -20.9 180.43 -22.16 Q 179.85 -23.43 179.41 -23.43 L 179.41 -23.43 Q 178.47 -23.43 176.16 -21.12 L 176.16 -21.12 Z M 188.59 -8.25 L 188.59 -29.64 L 195.85 -29.64 L 195.85 -10.62 Q 195.85 -7.81 196.51 -6.27 Q 197.17 -4.73 198.6 -3.58 L 198.6 -3.58 L 192.55 0.66 Q 188.59 -2.48 188.59 -8.25 L 188.59 -8.25 Z M 192.36 -41.14 Q 192.94 -41.14 195.03 -39.35 Q 197.12 -37.56 197.12 -36.93 Q 197.12 -36.3 195 -34.48 Q 192.88 -32.67 192.31 -32.67 Q 191.73 -32.67 189.64 -34.46 Q 187.55 -36.24 187.55 -36.88 Q 187.55 -37.51 189.67 -39.33 Q 191.78 -41.14 192.36 -41.14 Z M 209.44 -21.12 L 209.44 0 L 202.18 0 L 202.18 -18.98 Q 202.18 -21.78 201.52 -23.32 Q 200.86 -24.86 199.43 -26.02 L 199.43 -26.02 L 205.48 -30.25 Q 207.51 -28.6 208.5 -26.46 L 208.5 -26.46 Q 212.57 -30.3 214.25 -30.3 Q 215.93 -30.3 219.31 -27.25 Q 222.69 -24.2 222.69 -21.23 L 222.69 -21.23 L 222.69 -10.62 Q 222.69 -7.81 223.35 -6.27 Q 224.01 -4.73 225.44 -3.58 L 225.44 -3.58 L 219.39 0.66 Q 215.44 -2.48 215.44 -8.25 L 215.44 -8.25 L 215.44 -20.46 Q 215.44 -21.39 214.44 -22.41 Q 213.45 -23.43 212.6 -23.43 Q 211.75 -23.43 209.44 -21.12 L 209.44 -21.12 Z M 240.87 -21.34 Q 240.46 -22 239.3 -22.71 Q 238.15 -23.43 237.54 -23.43 Q 236.94 -23.43 236.25 -22.71 Q 235.56 -22 235.34 -21.39 L 235.34 -21.39 Q 234.9 -20.52 234.9 -15.89 Q 234.9 -11.28 235.34 -10.45 L 235.34 -10.45 Q 235.56 -9.9 236.25 -9.16 Q 236.94 -8.42 237.54 -8.42 Q 238.15 -8.42 239.33 -9.16 Q 240.51 -9.9 240.9 -10.53 Q 241.28 -11.17 241.28 -15.92 Q 241.28 -20.68 240.87 -21.34 Z M 243.04 -29.64 L 248.43 -29.64 L 248.43 -1.81 Q 248.43 5.22 247.8 6.57 Q 247.17 7.92 243.37 10.84 Q 239.58 13.75 237.68 13.75 Q 235.78 13.75 232.92 11.85 Q 230.06 9.96 228.63 7.48 L 228.63 7.48 L 234.3 3.58 L 234.85 4.29 Q 236.88 6.88 237.68 6.88 Q 238.48 6.88 239.5 6.16 Q 240.51 5.45 240.87 4.65 Q 241.23 3.85 241.23 -2.09 L 241.23 -2.09 L 241.39 -4.24 Q 237.65 -1.54 236.31 -1.54 Q 234.96 -1.54 232.04 -4.46 Q 229.13 -7.37 228.52 -8.8 Q 227.92 -10.23 227.92 -15.89 Q 227.92 -21.56 228.52 -23.02 Q 229.13 -24.48 232.04 -27.39 Q 234.96 -30.3 236.5 -30.3 Q 238.04 -30.3 242.38 -26.79 L 242.38 -26.79 L 243.04 -29.64 Z M 265.49 -16.66 L 265.49 -16.66 L 265.49 -21.84 Q 265.49 -28.71 266.59 -30.64 Q 267.69 -32.56 271.29 -35.86 Q 274.89 -39.16 276.65 -39.16 L 276.65 -39.16 Q 279.68 -39.16 283.58 -35.67 Q 287.49 -32.17 288.53 -28 L 288.53 -28 L 282.43 -23.76 Q 281.55 -26.73 279.62 -29.23 Q 277.69 -31.73 276.93 -31.73 L 276.93 -31.73 Q 275.55 -31.73 273.79 -29.04 L 273.79 -29.04 Q 273.07 -28 273.07 -21.84 L 273.07 -21.84 L 273.07 -16.66 Q 273.07 -10.34 273.79 -9.46 L 273.79 -9.46 Q 275.55 -6.76 276.93 -6.76 L 276.93 -6.76 Q 277.69 -6.76 279.62 -8.94 Q 281.55 -11.11 282.43 -13.75 L 282.43 -13.75 L 288.53 -9.46 Q 287.49 -5.67 283.58 -2.5 Q 279.68 0.66 276.65 0.66 L 276.65 0.66 Q 274.89 0.66 271.29 -2.64 Q 267.69 -5.94 266.59 -7.87 Q 265.49 -9.79 265.49 -16.66 Z M 301.29 -21.12 L 301.29 0 L 294.03 0 L 294.03 -30.03 Q 294.03 -32.84 293.37 -34.32 Q 292.71 -35.8 291.28 -37.02 L 291.28 -37.02 L 297.33 -41.25 Q 301.29 -38.12 301.29 -32.4 L 301.29 -32.4 L 301.29 -27.28 Q 304.7 -30.3 306.24 -30.3 Q 307.78 -30.3 311.16 -27.25 Q 314.55 -24.2 314.55 -21.23 L 314.55 -21.23 L 314.55 -10.62 Q 314.55 -7.81 315.21 -6.27 Q 315.87 -4.73 317.3 -3.58 L 317.3 -3.58 L 311.25 0.66 Q 307.29 -2.48 307.29 -8.25 L 307.29 -8.25 L 307.29 -20.46 Q 307.29 -21.39 306.3 -22.41 Q 305.31 -23.43 304.45 -23.43 Q 303.6 -23.43 301.29 -21.12 L 301.29 -21.12 Z M 335.28 -29.64 L 340.67 -29.64 L 340.67 -7.09 Q 341 -5.17 343.26 -3.69 L 343.26 -3.69 L 338.31 0.55 Q 337.59 0.06 336.55 -1.21 Q 335.5 -2.48 334.79 -3.79 L 334.79 -3.79 Q 330.22 0.66 328.41 0.66 L 328.41 0.66 Q 327.09 0.66 324.14 -2.25 Q 321.2 -5.17 320.49 -6.99 Q 319.77 -8.8 319.77 -14.82 Q 319.77 -20.84 320.49 -22.66 Q 321.2 -24.48 324.14 -27.39 Q 327.09 -30.3 328.41 -30.3 L 328.41 -30.3 Q 330.33 -30.3 334.62 -26.34 L 334.62 -26.34 L 335.28 -29.64 Z M 333.03 -21.26 Q 332.64 -21.95 331.46 -22.69 Q 330.28 -23.43 329.67 -23.43 Q 329.07 -23.43 328.38 -22.71 Q 327.69 -22 327.47 -21.39 L 327.47 -21.39 Q 326.76 -20.41 326.76 -14.82 Q 326.76 -9.24 327.47 -8.25 L 327.47 -8.25 Q 327.69 -7.7 328.38 -6.96 Q 329.07 -6.21 329.67 -6.21 Q 330.28 -6.21 331.46 -6.96 Q 332.64 -7.7 333 -8.3 Q 333.36 -8.91 333.41 -14.74 L 333.41 -14.74 Q 333.41 -20.57 333.03 -21.26 Z M 367.07 -21.23 L 367.07 0 L 359.81 0 L 359.81 -20.46 Q 359.81 -21.39 358.82 -22.41 Q 357.83 -23.43 357.14 -23.43 Q 356.46 -23.43 354.92 -22.11 L 354.92 -22.11 L 354.92 0 L 347.66 0 L 347.66 -18.98 Q 347.66 -21.78 347 -23.32 Q 346.34 -24.86 344.91 -26.02 L 344.91 -26.02 L 350.96 -30.25 Q 352.77 -28.71 353.65 -27.11 L 353.65 -27.11 Q 357.23 -30.3 358.6 -30.3 L 358.6 -30.3 Q 359.43 -30.3 361.3 -29.09 Q 363.17 -27.89 364.71 -26.18 L 364.71 -26.18 Q 369.05 -30.3 370.73 -30.3 Q 372.41 -30.3 375.79 -27.25 Q 379.17 -24.2 379.17 -21.23 L 379.17 -21.23 L 379.17 -10.62 Q 379.17 -7.81 379.83 -6.27 Q 380.49 -4.73 381.92 -3.58 L 381.92 -3.58 L 375.87 0.66 Q 371.91 -2.48 371.91 -8.25 L 371.91 -8.25 L 371.91 -20.46 Q 371.91 -21.39 370.92 -22.41 Q 369.93 -23.43 369.3 -23.43 Q 368.67 -23.43 366.96 -22.05 L 366.96 -22.05 Q 367.07 -21.5 367.07 -21.23 L 367.07 -21.23 Z M 391.71 0 L 386.32 0 L 386.32 -30.03 Q 386.32 -32.84 385.66 -34.32 Q 385 -35.8 383.57 -37.02 L 383.57 -37.02 L 389.62 -41.25 Q 393.58 -38.12 393.58 -32.4 L 393.58 -32.4 L 393.58 -27.39 Q 396.88 -30.3 398.34 -30.3 Q 399.8 -30.3 402.79 -27.36 Q 405.79 -24.42 406.23 -23.05 L 406.23 -23.05 Q 406.84 -21.67 406.84 -14.82 Q 406.84 -7.97 406.23 -6.6 L 406.23 -6.6 Q 405.79 -5.22 402.79 -2.28 Q 399.8 0.66 398.48 0.66 L 398.48 0.66 Q 396.55 0.66 392.32 -3.35 L 392.32 -3.35 L 391.71 0 Z M 393.86 -8.39 Q 394.24 -7.7 395.42 -6.96 Q 396.61 -6.21 397.21 -6.21 Q 397.82 -6.21 398.5 -6.93 Q 399.19 -7.65 399.52 -8.42 Q 399.85 -9.19 399.85 -14.82 Q 399.85 -20.46 399.52 -21.2 Q 399.19 -21.95 398.5 -22.69 Q 397.82 -23.43 397.24 -23.43 Q 396.66 -23.43 395.48 -22.69 Q 394.3 -21.95 393.91 -21.39 L 393.91 -21.39 Q 393.47 -20.46 393.47 -14.77 Q 393.47 -9.07 393.86 -8.39 Z M 430.71 -14.9 L 430.71 -14.9 L 430.71 -12.93 L 417.4 -12.93 Q 417.4 -9.63 418.22 -7.7 L 418.22 -7.7 Q 418.5 -7.04 419.21 -6.35 Q 419.93 -5.67 420.7 -5.67 Q 421.47 -5.67 422.62 -6.99 Q 423.78 -8.3 424.44 -10.18 L 424.44 -10.18 L 430.1 -6.16 Q 428.62 -3.41 425.56 -1.38 Q 422.51 0.66 420.64 0.66 Q 418.77 0.66 415.22 -2.25 Q 411.68 -5.17 410.91 -6.79 Q 410.14 -8.42 410.14 -14.82 Q 410.14 -21.23 410.91 -22.85 Q 411.68 -24.48 415.22 -27.39 Q 418.77 -30.3 420.42 -30.3 Q 422.07 -30.3 425.62 -27.39 Q 429.17 -24.48 429.94 -22.85 Q 430.71 -21.23 430.71 -14.9 Z M 423.09 -21.81 Q 422.68 -22.55 421.82 -23.27 Q 420.97 -23.98 420.23 -23.98 Q 419.49 -23.98 418.55 -22.52 Q 417.62 -21.07 417.4 -18.15 L 417.4 -18.15 L 423.67 -18.15 Q 423.5 -21.07 423.09 -21.81 Z M 443.74 -21.12 L 443.74 0 L 436.48 0 L 436.48 -18.98 Q 436.48 -21.78 435.79 -23.35 Q 435.11 -24.91 433.73 -26.07 L 433.73 -26.07 L 439.78 -30.3 Q 441.76 -28.66 442.81 -26.46 L 442.81 -26.46 Q 446.88 -30.3 448.53 -30.3 L 448.53 -30.3 Q 449.63 -30.3 451.88 -28.27 Q 454.14 -26.23 454.52 -23.82 L 454.52 -23.82 L 448.64 -19.58 Q 448.58 -20.9 448 -22.16 Q 447.43 -23.43 446.99 -23.43 L 446.99 -23.43 Q 446.05 -23.43 443.74 -21.12 L 443.74 -21.12 Z M 475.26 -8.91 L 475.26 -8.91 Q 475.26 -7.21 471.02 -3.27 Q 466.79 0.66 464.72 0.66 Q 462.66 0.66 459.61 -1.38 Q 456.56 -3.41 455.07 -6.16 L 455.07 -6.16 L 460.74 -10.06 Q 463.49 -6.21 464.75 -6.21 L 464.75 -6.21 Q 465.69 -6.21 467.06 -7.15 Q 468.44 -8.09 468.44 -8.91 L 468.44 -8.91 Q 468.44 -9.13 467.12 -9.87 Q 465.8 -10.62 463.9 -11.74 Q 462 -12.87 460.13 -14.27 Q 458.26 -15.68 456.94 -17.71 Q 455.62 -19.75 455.62 -21.84 Q 455.62 -23.93 459.36 -27.11 Q 463.1 -30.3 465.11 -30.3 Q 467.12 -30.3 470.17 -28.27 Q 473.22 -26.23 474.71 -23.48 L 474.71 -23.48 L 469.04 -19.58 Q 466.29 -23.43 465.03 -23.43 L 465.03 -23.43 Q 464.37 -23.43 463.4 -22.69 Q 462.44 -21.95 462.44 -21.34 Q 462.44 -20.73 464.45 -19.47 Q 466.46 -18.21 468.85 -16.86 Q 471.24 -15.51 473.25 -13.34 Q 475.26 -11.17 475.26 -8.91 Z" stroke-linecap="round" />
</g>
</g>
</g>
<g transform="matrix(1.1687800032483278 0 0 1.1687800032483278 182.97908911884224 511.90226961455693)" id="logo-logo"  >
<g style=""  paint-order="stroke"   >
		<g transform="matrix(0.30881112285911116 0 0 -0.30881112285911116 0 0)"  >
<path style="stroke: none; stroke-width: 1; stroke-dasharray: none; stroke-linecap: butt; stroke-dashoffset: 0; stroke-linejoin: miter; stroke-miterlimit: 10; fill: rgb(255,87,88); fill-rule: nonzero; opacity: 1;"  paint-order="stroke"  transform=" translate(-556.319732894814, -1538.7650000000003)" d="M 981.125 1483.46 C 981.656 1487.68 980.355 1491.92 977.555 1495.1000000000001 C 974.742 1498.2900000000002 970.699 1500.1200000000001 966.449 1500.1200000000001 L 765.934 1500.1200000000001 C 759.16 1500.1200000000001 753.266 1495.5300000000002 751.5939999999999 1488.96 C 741.199 1447.94 717.0039999999999 1410.3600000000001 683.4609999999999 1383.13 C 647.4999999999999 1354.2600000000002 604.117 1338.99 557.992 1338.99 C 511.813 1338.99 468.44499999999994 1354.3 432.578 1383.25 L 432.578 1383.26 C 420.152 1393.32 409.09799999999996 1404.69 399.51599999999996 1417.2 L 531.223 1417.2 C 535.688 1417.2 539.9219999999999 1419.22 542.7299999999999 1422.7 L 628.7659999999998 1529.39 C 633.1289999999999 1534.8200000000002 633.1289999999999 1542.5400000000002 628.7659999999998 1547.96 L 542.7299999999998 1654.6200000000001 C 539.9219999999998 1658.1000000000001 535.6879999999998 1660.1200000000001 531.2229999999998 1660.1200000000001 L 399.36299999999983 1660.1200000000001 C 409.0389999999998 1672.7600000000002 420.14799999999985 1684.17 432.5509999999998 1694.21 L 432.5629999999998 1694.22 C 468.4139999999998 1723.21 511.79299999999984 1738.53 557.9919999999998 1738.53 C 604.1949999999998 1738.53 647.5739999999998 1723.21 683.4179999999999 1694.22 L 683.4379999999999 1694.21 C 716.9919999999998 1667.16 741.1949999999998 1629.57 751.5939999999998 1588.4 C 753.2539999999998 1581.8300000000002 759.1599999999999 1577.23 765.9339999999999 1577.23 L 966.4489999999998 1577.23 C 970.6989999999998 1577.23 974.7419999999998 1579.06 977.5389999999999 1582.24 C 980.3549999999999 1585.43 981.6559999999998 1589.67 981.1249999999999 1593.89 C 967.8669999999998 1698.02 916.8909999999998 1792.4 837.2419999999998 1861.3700000000001 L 901.7729999999999 1941.39 C 905.3519999999999 1945.8200000000002 906.0589999999999 1951.91 903.6089999999999 1957.0500000000002 C 901.1519999999999 1962.1900000000003 895.953 1965.4600000000003 890.266 1965.4600000000003 L 557.992 1965.4600000000003 C 460.563 1965.4600000000003 365.40199999999993 1931.8400000000004 290.05499999999995 1870.7700000000002 L 290.02299999999997 1870.7600000000002 C 189.21499999999997 1789.38 131.39799999999997 1668.3400000000001 131.39799999999997 1538.6800000000003 C 131.39799999999997 1409.0900000000004 189.27299999999997 1288.0500000000002 290.19499999999994 1206.5900000000004 L 290.2029999999999 1206.5800000000004 L 290.2269999999999 1206.5700000000004 C 365.6679999999999 1145.6300000000003 460.7579999999999 1112.0700000000004 557.992 1112.0700000000004 L 890.266 1112.0700000000004 C 895.953 1112.0700000000004 901.1519999999999 1115.3400000000004 903.6089999999999 1120.4700000000005 C 906.059 1125.6100000000006 905.352 1131.7000000000005 901.7729999999999 1136.1400000000006 L 837.2579999999999 1216.1400000000006 C 916.8629999999999 1284.8900000000006 967.8199999999999 1379.2200000000005 981.1249999999999 1483.4600000000005 z M 777.125 1470.55 L 949.297 1470.55 C 933.9300000000001 1380.55 887.8670000000001 1299.6299999999999 818.48 1239.3999999999999 L 713.145 1369.84 C 742.961 1397.36 765.27 1432.36 777.125 1470.55 z M 949.313 1606.81 L 777.141 1606.81 C 765.281 1645.1 742.9879999999999 1680.1 713.168 1707.52 L 818.48 1838.1 C 887.883 1777.6899999999998 933.961 1696.71 949.313 1606.81 z M 859.348 1935.8799999999999 L 805.168 1868.7099999999998 L 690.109 1726.0299999999997 C 651.633 1753.1799999999998 605.32 1768.1099999999997 557.9920000000001 1768.1099999999997 C 510.6640000000001 1768.1099999999997 464.3550000000001 1753.1799999999996 425.8790000000001 1726.0299999999997 L 320.4840000000001 1856.5599999999997 C 388.6370000000001 1907.6199999999997 472.26200000000006 1935.8799999999997 557.9920000000001 1935.8799999999997 z M 160.97299999999996 1538.6799999999998 C 160.97299999999996 1654.4099999999999 210.55899999999997 1762.6499999999999 297.35499999999996 1838.1399999999999 L 402.902 1707.4 C 385.668 1691.52 370.828 1673.2900000000002 358.961 1652.73 C 356.31600000000003 1648.14 356.324 1642.51 358.961 1637.94 C 361.60200000000003 1633.3600000000001 366.48400000000004 1630.55 371.77000000000004 1630.55 L 524.152 1630.55 L 598.258 1538.6799999999998 L 524.152 1446.7799999999997 L 371.973 1446.7799999999997 C 366.699 1446.7799999999997 361.82 1443.9699999999998 359.18 1439.3999999999996 C 356.531 1434.8399999999997 356.52 1429.2199999999996 359.141 1424.6399999999996 C 370.82800000000003 1404.2299999999996 385.625 1386.0299999999997 402.91400000000004 1370.0899999999997 L 297.512 1239.23 C 210.613 1314.78 160.973 1423.03 160.973 1538.68 z M 557.992 1141.6399999999999 C 472.441 1141.6399999999999 388.871 1169.86 320.65999999999997 1220.82 L 425.895 1351.46 C 464.375 1324.3500000000001 510.67999999999995 1309.42 557.992 1309.42 C 605.2339999999999 1309.42 651.543 1324.29 690.082 1351.3300000000002 L 805.168 1208.8100000000002 L 805.18 1208.7900000000002 L 859.348 1141.64 L 557.992 1141.64" stroke-linecap="round" />
</g>
</g>
</g>
<g transform="matrix(1.9211538461538462 0 0 1.9211538461538462 793.9843834189627 582.3289117253096)" id="tagline-ef2456ae-876b-4302-8c09-8c2a3f40f537-logo"  >
<g style=""  paint-order="stroke"   >
		<g transform="matrix(1 0 0 1 0 0)" id="tagline-ef2456ae-876b-4302-8c09-8c2a3f40f537-logo-path-0"  >
<path style="stroke: none; stroke-width: 0; stroke-dasharray: none; stroke-linecap: butt; stroke-dashoffset: 0; stroke-linejoin: miter; stroke-miterlimit: 4; fill: rgb(100,126,252); fill-rule: nonzero; opacity: 1;"  paint-order="stroke"  transform=" translate(-231.32, 6.385000000000002)" d="M 1.08 -18.93 L 0.89 -19.86 Q 1.44 -20.26 2.55 -20.25 Q 3.66 -20.24 4.2 -19.92 L 4.2 -19.92 Q 3.46 -16.2 3.46 -14.94 L 3.46 -14.94 Q 3.03 -14.74 2.53 -14.74 Q 2.04 -14.74 1.63 -14.94 L 1.63 -14.94 Q 1.63 -16.14 1.08 -18.93 L 1.08 -18.93 Z M 8.1 -16.14 L 8 -16.92 Q 8 -18.35 8.48 -19.44 L 8.48 -19.44 L 8.67 -19.8 Q 11.02 -19.83 13.97 -20 Q 16.92 -20.16 19.3 -20.16 Q 21.68 -20.16 21.68 -20.04 L 21.68 -20.04 Q 21.68 -19.17 21.54 -17.96 Q 21.39 -16.74 21.18 -16.52 L 21.18 -16.52 Q 20.51 -16.67 18.64 -16.67 L 18.64 -16.67 Q 18.49 -16.67 18.36 -16.68 L 18.36 -16.68 Q 16.76 -16.68 16.67 -16.6 L 16.67 -16.6 Q 16.47 -16.39 16.47 -8.77 Q 16.47 -1.14 17.36 0.51 L 17.36 0.51 L 17.36 0.54 Q 17.36 0.81 16.2 1.05 Q 15.03 1.29 14.34 1.29 L 14.34 1.29 Q 13.38 1.29 12.78 1.03 L 12.78 1.03 Q 12.57 0.78 12.57 -2.4 L 12.57 -2.4 L 12.78 -14.88 Q 12.78 -16.41 12.7 -16.48 Q 12.63 -16.55 12.2 -16.55 L 12.2 -16.55 Q 11.28 -16.55 8.91 -16.26 L 8.91 -16.26 L 8.1 -16.14 Z M 25.64 0.69 L 25.64 0.69 Q 25.87 -0.63 25.87 -5.82 L 25.87 -5.82 L 25.79 -16.23 Q 25.79 -19.15 25.93 -19.29 L 25.93 -19.29 Q 26.3 -19.66 27.11 -19.98 Q 27.93 -20.3 28.67 -20.3 Q 29.42 -20.3 29.42 -20.19 L 29.42 -20.19 Q 29.39 -19.92 29.3 -16.26 Q 29.21 -12.6 29.21 -11.46 L 29.21 -11.46 L 29.21 -11.19 Q 29.21 -11.04 29.3 -11.04 L 29.3 -11.04 L 29.9 -11.65 Q 30.24 -11.94 31.24 -12.47 Q 32.23 -12.99 33.12 -12.99 Q 34 -12.99 34.59 -12.69 Q 35.18 -12.39 35.56 -11.97 Q 35.95 -11.54 36.22 -10.75 Q 36.49 -9.96 36.63 -9.29 Q 36.77 -8.61 36.86 -7.44 L 36.86 -7.44 Q 36.95 -5.84 36.95 -3.41 L 36.95 -3.41 L 36.83 0.57 Q 36.74 0.81 35.81 0.99 Q 34.88 1.17 34.28 1.17 L 34.28 1.17 L 33.29 1.03 Q 33.58 -1.67 33.58 -4.16 L 33.58 -4.16 Q 33.58 -4.2 33.59 -4.26 L 33.59 -4.26 Q 33.59 -6.69 33.23 -7.95 L 33.23 -7.95 Q 32.86 -9.24 31.76 -9.24 L 31.76 -9.24 Q 31.05 -9.24 30.42 -8.67 Q 29.79 -8.1 29.54 -7.53 L 29.54 -7.53 L 29.27 -6.96 Q 29.33 -4.89 29.33 -2.52 Q 29.33 -0.15 29.18 -0.03 L 29.18 -0.03 Q 28.29 0.78 25.87 0.78 L 25.87 0.78 Q 25.64 0.78 25.64 0.69 Z M 43.24 -1.08 Q 41.64 -2.86 41.64 -5.81 Q 41.64 -8.76 43.55 -10.94 Q 45.46 -13.11 48.9 -13.11 L 48.9 -13.11 Q 50.31 -13.11 51.5 -12.36 Q 52.68 -11.62 52.68 -9.74 Q 52.68 -7.87 51.05 -6.04 Q 49.42 -4.2 46.59 -3.24 L 46.59 -3.24 Q 46.59 -2.87 47.33 -2.65 Q 48.07 -2.43 48.79 -2.43 L 48.79 -2.43 Q 51.07 -2.43 52.39 -3.24 L 52.39 -3.24 Q 52.42 -3.27 52.48 -3.27 Q 52.54 -3.27 52.54 -2.7 L 52.54 -2.7 Q 52.54 -0.97 51.79 0 L 51.79 0 Q 50.76 0.69 47.8 0.69 Q 44.83 0.69 43.24 -1.08 Z M 45.15 -6.12 L 45.15 -6.12 Q 45.15 -5.7 45.27 -5.7 L 45.27 -5.7 Q 46.36 -5.73 47.76 -6.94 Q 49.17 -8.16 49.17 -9.54 L 49.17 -9.54 Q 49.17 -10.4 48.25 -10.42 L 48.25 -10.42 Q 47.01 -10.42 46.08 -9.16 Q 45.15 -7.9 45.15 -6.12 Z M 65.99 3.75 L 65.99 3.75 L 66.14 -10.2 Q 66.14 -12.66 66.05 -13.62 L 66.05 -13.62 Q 66.41 -13.99 67.27 -14.31 Q 68.13 -14.63 68.76 -14.63 Q 69.39 -14.63 69.53 -14.55 L 69.53 -14.55 L 69.51 -13.14 Q 77.49 -13.14 77.49 -6.96 L 77.49 -6.96 Q 77.49 -5.27 76.81 -3.91 Q 76.13 -2.55 75.14 -1.76 Q 74.15 -0.97 72.98 -0.42 L 72.98 -0.42 Q 70.97 0.5 69.39 0.51 L 69.39 0.51 L 69.39 0.97 Q 69.39 5.46 69.62 6.96 L 69.62 6.96 Q 69.23 7.35 68.27 7.57 Q 67.31 7.79 66.71 7.79 Q 66.11 7.79 66.11 7.71 L 66.11 7.71 Q 65.99 6.74 65.99 3.75 Z M 69.45 -8.73 L 69.39 -4.32 L 69.42 -2.83 Q 71.25 -2.83 72.63 -3.87 Q 74 -4.92 74 -6.9 L 74 -6.9 Q 74 -10.14 69.48 -10.14 L 69.48 -10.14 L 69.45 -9.76 Q 69.45 -9.36 69.45 -8.73 L 69.45 -8.73 Z M 83.56 -1.05 Q 81.87 -2.89 81.87 -5.81 Q 81.87 -8.73 83.96 -10.99 Q 86.05 -13.26 89.59 -13.26 L 89.59 -13.26 Q 91.03 -13.2 91.14 -13.08 Q 91.26 -12.96 91.26 -12.51 Q 91.26 -12.06 91.17 -11.51 L 91.17 -11.51 Q 91.63 -11.51 92.33 -10.99 Q 93.03 -10.47 93.49 -9.93 Q 93.94 -9.39 94.27 -8.42 Q 94.6 -7.44 94.6 -6.24 L 94.6 -6.24 Q 94.6 -3.38 92.87 -1.3 Q 91.14 0.78 88.19 0.78 Q 85.24 0.78 83.56 -1.05 Z M 85.3 -5.84 L 85.3 -5.84 Q 85.3 -3.5 86.79 -2.61 L 86.79 -2.61 Q 87.35 -2.24 88.33 -2.24 L 88.33 -2.24 Q 88.33 -2.26 88.36 -2.26 L 88.36 -2.26 Q 89.36 -2.26 90.25 -3.19 Q 91.14 -4.12 91.14 -5.94 Q 91.14 -7.76 90.22 -8.33 L 90.22 -8.33 Q 89.53 -8.79 88.87 -8.79 L 88.87 -8.79 L 88.62 -8.79 Q 88.57 -8.91 88.57 -9.3 Q 88.57 -9.7 88.65 -10.05 L 88.65 -10.05 Q 87.42 -10.05 86.36 -8.94 Q 85.3 -7.84 85.3 -5.84 Z M 98.62 -12.63 L 98.62 -12.63 Q 98.62 -12.69 98.93 -12.88 Q 99.25 -13.08 100.04 -13.28 Q 100.83 -13.48 101.82 -13.48 L 101.82 -13.48 Q 102.94 -6.94 103.86 -4.86 L 103.86 -4.86 Q 103.92 -4.72 104.01 -4.86 L 104.01 -4.86 Q 104.52 -5.86 105.06 -7.92 Q 105.6 -9.99 105.72 -11.25 L 105.72 -11.25 Q 105.75 -11.4 106.45 -11.52 Q 107.14 -11.65 107.8 -11.65 L 107.8 -11.65 Q 109.81 -11.65 109.87 -11.25 L 109.87 -11.25 Q 110.86 -5.64 111.45 -4.41 L 111.45 -4.41 L 111.58 -4.41 Q 112.24 -5.82 113.05 -9.33 Q 113.85 -12.85 113.97 -14.31 L 113.97 -14.31 Q 115.77 -14.31 116.91 -13.68 L 116.91 -13.68 Q 117.28 -13.51 117.28 -13.45 L 117.28 -13.45 Q 117.28 -12.13 116.36 -8.8 Q 115.45 -5.46 114.53 -2.75 Q 113.62 -0.03 113.49 0.09 Q 113.37 0.21 112.44 0.34 Q 111.51 0.48 110.73 0.48 Q 109.95 0.48 109.72 0.37 L 109.72 0.37 Q 109.46 0.1 108.73 -2.54 Q 108.01 -5.19 107.73 -7.02 L 107.73 -7.02 L 107.64 -7.02 Q 107.19 -5.19 106.42 -2.7 Q 105.66 -0.21 105.49 -0.01 Q 105.31 0.18 104.29 0.37 Q 103.26 0.57 102.66 0.57 Q 102.06 0.57 101.97 0.48 L 101.97 0.48 Q 101.74 0.28 100.18 -5.46 Q 98.62 -11.19 98.62 -12.63 Z M 122.88 -1.08 Q 121.28 -2.86 121.28 -5.81 Q 121.28 -8.76 123.19 -10.94 Q 125.1 -13.11 128.55 -13.11 L 128.55 -13.11 Q 129.95 -13.11 131.14 -12.36 Q 132.33 -11.62 132.33 -9.74 Q 132.33 -7.87 130.69 -6.04 Q 129.06 -4.2 126.23 -3.24 L 126.23 -3.24 Q 126.23 -2.87 126.97 -2.65 Q 127.71 -2.43 128.43 -2.43 L 128.43 -2.43 Q 130.71 -2.43 132.03 -3.24 L 132.03 -3.24 Q 132.06 -3.27 132.12 -3.27 Q 132.18 -3.27 132.18 -2.7 L 132.18 -2.7 Q 132.18 -0.97 131.43 0 L 131.43 0 Q 130.41 0.69 127.44 0.69 Q 124.47 0.69 122.88 -1.08 Z M 124.8 -6.12 L 124.8 -6.12 Q 124.8 -5.7 124.91 -5.7 L 124.91 -5.7 Q 126 -5.73 127.4 -6.94 Q 128.81 -8.16 128.81 -9.54 L 128.81 -9.54 Q 128.81 -10.4 127.89 -10.42 L 127.89 -10.42 Q 126.66 -10.42 125.73 -9.16 Q 124.8 -7.9 124.8 -6.12 Z M 137.03 0.69 L 137.03 0.69 Q 137.24 -0.47 137.24 -4.04 L 137.24 -4.04 L 137.18 -10.85 Q 137.18 -12.63 137.31 -12.74 L 137.31 -12.74 Q 137.65 -13.08 138.45 -13.34 Q 139.26 -13.59 139.96 -13.59 Q 140.66 -13.59 140.66 -13.45 L 140.66 -13.45 Q 140.57 -12.64 140.57 -11.6 Q 140.57 -10.56 140.63 -10.56 Q 140.69 -10.56 140.75 -10.63 Q 140.81 -10.71 140.95 -10.88 Q 141.09 -11.04 141.52 -11.46 Q 141.95 -11.88 142.46 -12.17 L 142.46 -12.17 Q 143.75 -13.01 145.22 -13.02 L 145.22 -13.02 Q 145.45 -12.63 145.47 -11.82 L 145.47 -11.82 Q 145.47 -10.11 145.04 -9.39 L 145.04 -9.39 L 144.93 -9.16 L 144.53 -9.21 Q 142.38 -9.21 141.15 -7.44 L 141.15 -7.44 Q 140.66 -6.72 140.66 -6.36 L 140.66 -6.36 L 140.66 -3.72 Q 140.66 -0.12 140.57 -0.03 L 140.57 -0.03 Q 139.74 0.78 137.28 0.78 L 137.28 0.78 Q 137.04 0.78 137.03 0.69 Z M 159.24 -1.05 Q 157.56 -2.89 157.56 -5.81 Q 157.56 -8.73 159.65 -10.99 Q 161.73 -13.26 165.28 -13.26 L 165.28 -13.26 Q 166.71 -13.2 166.83 -13.08 Q 166.95 -12.96 166.95 -12.51 Q 166.95 -12.06 166.86 -11.51 L 166.86 -11.51 Q 167.31 -11.51 168.02 -10.99 Q 168.72 -10.47 169.17 -9.93 Q 169.63 -9.39 169.96 -8.42 Q 170.29 -7.44 170.29 -6.24 L 170.29 -6.24 Q 170.29 -3.38 168.56 -1.3 Q 166.83 0.78 163.88 0.78 Q 160.93 0.78 159.24 -1.05 Z M 160.99 -5.84 L 160.99 -5.84 Q 160.99 -3.5 162.48 -2.61 L 162.48 -2.61 Q 163.04 -2.24 164.02 -2.24 L 164.02 -2.24 Q 164.02 -2.26 164.05 -2.26 L 164.05 -2.26 Q 165.04 -2.26 165.94 -3.19 Q 166.83 -4.12 166.83 -5.94 Q 166.83 -7.76 165.91 -8.33 L 165.91 -8.33 Q 165.22 -8.79 164.56 -8.79 L 164.56 -8.79 L 164.31 -8.79 Q 164.25 -8.91 164.25 -9.3 Q 164.25 -9.7 164.34 -10.05 L 164.34 -10.05 Q 163.11 -10.05 162.05 -8.94 Q 160.99 -7.84 160.99 -5.84 Z M 174.54 -12.96 Q 174.39 -13.11 174.39 -14.28 Q 174.39 -15.45 174.65 -15.72 L 174.65 -15.72 Q 175.2 -15.75 175.83 -15.78 L 175.83 -15.78 L 175.77 -19.41 Q 175.71 -19.89 177.99 -21 Q 180.27 -22.1 181.72 -22.1 L 181.72 -22.1 Q 181.89 -22.1 182.18 -21.43 Q 182.46 -20.76 182.46 -20.38 Q 182.46 -20.01 182.43 -19.92 L 182.43 -19.92 Q 182.35 -19.92 181.65 -19.61 Q 180.95 -19.29 180.21 -18.79 Q 179.46 -18.3 179.43 -17.94 L 179.43 -17.94 Q 179.31 -17.17 179.25 -15.81 L 179.25 -15.81 L 179.37 -15.81 Q 181.8 -15.81 181.8 -15.72 L 181.8 -15.72 Q 181.8 -14.31 181.23 -13.37 L 181.23 -13.37 Q 181.03 -13.01 180.87 -13.02 L 180.87 -13.02 Q 179.9 -13.08 179.23 -13.08 L 179.23 -13.08 L 179.23 -11.59 L 179.37 0.42 Q 179.37 1.6 179.31 1.89 L 179.31 1.89 Q 178.17 2.72 176.28 2.72 L 176.28 2.72 L 175.45 2.58 Q 175.89 -0.64 175.89 -9.17 L 175.89 -9.17 Q 175.89 -9.45 175.89 -9.73 L 175.89 -9.73 Q 175.89 -11.98 175.86 -13.02 L 175.86 -13.02 L 174.54 -12.96 Z M 195.9 -0.37 Q 194.74 -1.41 194.74 -3.09 Q 194.74 -4.78 195.48 -5.93 Q 196.22 -7.08 197.21 -7.68 Q 198.2 -8.28 199.4 -8.64 L 199.4 -8.64 Q 201.23 -9.24 202.27 -9.24 L 202.27 -9.24 L 202.33 -9.27 Q 202.33 -10.74 198.61 -10.74 L 198.61 -10.74 Q 197.15 -10.74 196.43 -10.62 L 196.43 -10.62 L 196.4 -10.62 Q 196.4 -11.22 196.77 -12.12 Q 197.15 -13.02 197.4 -13.29 Q 197.66 -13.56 199.55 -13.56 L 199.55 -13.56 Q 202.96 -13.56 204.59 -12.26 Q 206.21 -10.96 206.21 -8.22 L 206.21 -8.22 L 206.21 -6.69 Q 206.21 -2.94 206.3 -2.31 L 206.3 -2.31 Q 206.54 -0.66 207.31 0.06 L 207.31 0.06 Q 207.31 0.4 206.13 1.05 Q 204.95 1.71 203.99 1.71 L 203.99 1.71 Q 203.72 1.71 203.42 0.92 Q 203.12 0.12 203.07 -0.27 Q 203.02 -0.66 202.99 -0.66 L 202.99 -0.66 L 202.9 -0.6 Q 201.31 0.66 199.18 0.66 Q 197.06 0.66 195.9 -0.37 Z M 198.43 -3.87 L 198.43 -3.87 Q 198.43 -3.24 198.89 -2.82 Q 199.34 -2.4 200.25 -2.4 Q 201.16 -2.4 202.02 -2.94 Q 202.87 -3.49 202.87 -4.78 L 202.87 -4.78 L 202.87 -5.9 Q 202.87 -6.56 202.84 -6.58 L 202.84 -6.58 Q 200.84 -6.58 199.37 -5.52 L 199.37 -5.52 Q 198.45 -4.86 198.43 -3.87 Z M 211.72 3.75 L 211.72 3.75 L 211.87 -10.2 Q 211.87 -12.66 211.78 -13.62 L 211.78 -13.62 Q 212.15 -13.99 213 -14.31 Q 213.86 -14.63 214.49 -14.63 Q 215.12 -14.63 215.27 -14.55 L 215.27 -14.55 L 215.24 -13.14 Q 223.22 -13.14 223.22 -6.96 L 223.22 -6.96 Q 223.22 -5.27 222.54 -3.91 Q 221.86 -2.55 220.87 -1.76 Q 219.88 -0.97 218.71 -0.42 L 218.71 -0.42 Q 216.7 0.5 215.12 0.51 L 215.12 0.51 L 215.12 0.97 Q 215.12 5.46 215.36 6.96 L 215.36 6.96 Q 214.96 7.35 214 7.57 Q 213.04 7.79 212.44 7.79 Q 211.84 7.79 211.84 7.71 L 211.84 7.71 Q 211.72 6.74 211.72 3.75 Z M 215.18 -8.73 L 215.12 -4.32 L 215.15 -2.83 Q 216.98 -2.83 218.36 -3.87 Q 219.74 -4.92 219.74 -6.9 L 219.74 -6.9 Q 219.74 -10.14 215.21 -10.14 L 215.21 -10.14 L 215.18 -9.76 Q 215.18 -9.36 215.18 -8.73 L 215.18 -8.73 Z M 228.06 3.75 L 228.06 3.75 L 228.21 -10.2 Q 228.21 -12.66 228.12 -13.62 L 228.12 -13.62 Q 228.48 -13.99 229.34 -14.31 Q 230.2 -14.63 230.83 -14.63 Q 231.46 -14.63 231.6 -14.55 L 231.6 -14.55 L 231.57 -13.14 Q 239.56 -13.14 239.56 -6.96 L 239.56 -6.96 Q 239.56 -5.27 238.88 -3.91 Q 238.2 -2.55 237.21 -1.76 Q 236.22 -0.97 235.05 -0.42 L 235.05 -0.42 Q 233.04 0.5 231.46 0.51 L 231.46 0.51 L 231.46 0.97 Q 231.46 5.46 231.69 6.96 L 231.69 6.96 Q 231.3 7.35 230.34 7.57 Q 229.38 7.79 228.78 7.79 Q 228.18 7.79 228.18 7.71 L 228.18 7.71 Q 228.06 6.74 228.06 3.75 Z M 231.52 -8.73 L 231.46 -4.32 L 231.49 -2.83 Q 233.32 -2.83 234.69 -3.87 Q 236.07 -4.92 236.07 -6.9 L 236.07 -6.9 Q 236.07 -10.14 231.55 -10.14 L 231.55 -10.14 L 231.52 -9.76 Q 231.52 -9.36 231.52 -8.73 L 231.52 -8.73 Z M 244.54 -4.26 L 244.54 -4.26 L 244.67 -15.12 Q 244.67 -17.49 244.61 -18.33 Q 244.54 -19.17 244.54 -19.23 L 244.54 -19.23 Q 244.54 -19.53 245.55 -19.91 Q 246.56 -20.3 247.34 -20.3 Q 248.12 -20.3 248.12 -20.19 L 248.12 -20.19 Q 247.97 -19.07 247.97 -12.39 L 247.97 -12.39 L 247.91 -5.04 Q 247.91 -2.97 247.97 -2.49 L 247.97 -2.49 Q 248.12 -1.17 248.83 -0.09 L 248.83 -0.09 Q 248.83 0.21 247.6 0.86 Q 246.37 1.52 245.51 1.52 L 245.51 1.52 Q 245.27 1.52 244.97 0.63 Q 244.67 -0.26 244.61 -0.93 Q 244.54 -1.6 244.54 -4.26 Z M 253.79 -14.38 Q 253.29 -14.91 253.29 -15.78 Q 253.29 -16.66 253.96 -17.29 Q 254.62 -17.92 255.44 -17.92 Q 256.26 -17.92 256.77 -17.37 Q 257.29 -16.83 257.29 -15.96 Q 257.29 -15.09 256.61 -14.47 Q 255.94 -13.86 255.11 -13.86 Q 254.28 -13.86 253.79 -14.38 Z M 253.58 -1.08 Q 253.51 -1.89 253.51 -6.54 Q 253.51 -11.19 253.71 -11.62 L 253.71 -11.62 Q 254.39 -12.14 256.06 -12.14 L 256.06 -12.14 Q 256.1 -12.14 256.15 -12.14 L 256.15 -12.14 Q 256.83 -12.14 256.98 -11.97 L 256.98 -11.97 L 256.95 -10.44 L 256.89 -5.58 Q 256.89 -3.24 257.03 -2.15 Q 257.17 -1.05 257.8 -0.09 L 257.8 -0.09 Q 257.8 0.21 256.57 0.86 Q 255.34 1.52 254.46 1.52 L 254.46 1.52 Q 254.2 1.52 253.93 0.63 Q 253.65 -0.26 253.58 -1.08 Z M 263.49 -1.08 Q 261.89 -2.86 261.89 -5.81 Q 261.89 -8.76 263.8 -10.94 Q 265.71 -13.11 269.16 -13.11 L 269.16 -13.11 Q 270.56 -13.11 271.75 -12.36 Q 272.93 -11.62 272.93 -9.74 Q 272.93 -7.87 271.3 -6.04 Q 269.67 -4.2 266.84 -3.24 L 266.84 -3.24 Q 266.84 -2.87 267.58 -2.65 Q 268.32 -2.43 269.04 -2.43 L 269.04 -2.43 Q 271.32 -2.43 272.64 -3.24 L 272.64 -3.24 Q 272.67 -3.27 272.73 -3.27 Q 272.79 -3.27 272.79 -2.7 L 272.79 -2.7 Q 272.79 -0.97 272.04 0 L 272.04 0 Q 271.02 0.69 268.05 0.69 Q 265.08 0.69 263.49 -1.08 Z M 265.41 -6.12 L 265.41 -6.12 Q 265.41 -5.7 265.52 -5.7 L 265.52 -5.7 Q 266.61 -5.73 268.01 -6.94 Q 269.42 -8.16 269.42 -9.54 L 269.42 -9.54 Q 269.42 -10.4 268.5 -10.42 L 268.5 -10.42 Q 267.27 -10.42 266.34 -9.16 Q 265.41 -7.9 265.41 -6.12 Z M 277.19 -4.58 L 277.19 -4.58 Q 277.19 -7.97 279.29 -10.36 Q 281.39 -12.76 285.29 -12.88 L 285.29 -12.88 L 285.23 -17.31 Q 285.23 -19.17 285.32 -19.26 L 285.32 -19.26 Q 285.68 -19.63 286.51 -19.97 Q 287.34 -20.3 288.08 -20.3 Q 288.83 -20.3 288.83 -20.19 L 288.83 -20.19 Q 288.6 -15.21 288.6 -9.59 Q 288.6 -3.98 288.77 -2.92 L 288.77 -2.92 Q 288.98 -1.29 289.77 -0.51 L 289.77 -0.51 Q 289.77 -0.22 288.52 0.43 Q 287.28 1.08 286.4 1.08 L 286.4 1.08 Q 286.31 1.08 286.14 0.83 L 286.14 0.83 Q 285.56 0.09 285.45 -1.2 L 285.45 -1.2 Q 285.45 -1.29 285.39 -1.29 L 285.39 -1.29 L 285.29 -1.23 Q 284.03 0.57 281.54 0.57 L 281.54 0.57 Q 279.53 0.57 278.36 -1.02 Q 277.19 -2.61 277.19 -4.58 Z M 280.79 -5.43 L 280.79 -5.43 Q 280.79 -4.32 281.32 -3.62 Q 281.84 -2.92 282.91 -2.92 Q 283.97 -2.92 284.61 -3.85 Q 285.26 -4.78 285.26 -5.3 L 285.26 -5.3 Q 285.26 -8.64 285.34 -9.73 L 285.34 -9.73 Q 285.34 -9.79 285.02 -9.79 L 285.02 -9.79 L 284.91 -9.79 Q 282.99 -9.79 281.89 -8.55 Q 280.79 -7.32 280.79 -5.43 Z M 304.01 -14.38 Q 303.51 -14.91 303.51 -15.78 Q 303.51 -16.66 304.18 -17.29 Q 304.85 -17.92 305.67 -17.92 Q 306.49 -17.92 307 -17.37 Q 307.51 -16.83 307.51 -15.96 Q 307.51 -15.09 306.84 -14.47 Q 306.17 -13.86 305.34 -13.86 Q 304.51 -13.86 304.01 -14.38 Z M 303.81 -1.08 Q 303.73 -1.89 303.73 -6.54 Q 303.73 -11.19 303.94 -11.62 L 303.94 -11.62 Q 304.61 -12.14 306.28 -12.14 L 306.28 -12.14 Q 306.33 -12.14 306.37 -12.14 L 306.37 -12.14 Q 307.06 -12.14 307.21 -11.97 L 307.21 -11.97 L 307.18 -10.44 L 307.12 -5.58 Q 307.12 -3.24 307.26 -2.15 Q 307.4 -1.05 308.03 -0.09 L 308.03 -0.09 Q 308.03 0.21 306.8 0.86 Q 305.56 1.52 304.69 1.52 L 304.69 1.52 Q 304.42 1.52 304.15 0.63 Q 303.88 -0.26 303.81 -1.08 Z M 312.72 0.69 L 312.72 0.69 Q 312.92 -0.66 312.94 -3.75 L 312.94 -3.75 L 312.85 -10.5 Q 312.85 -12.36 312.99 -12.51 L 312.99 -12.51 Q 313.33 -12.85 314.14 -13.1 Q 314.94 -13.34 315.65 -13.34 Q 316.35 -13.34 316.35 -13.2 L 316.35 -13.2 Q 316.26 -12.48 316.26 -11.76 Q 316.26 -11.04 316.35 -11.04 L 316.35 -11.04 L 316.44 -11.1 Q 316.58 -11.31 316.89 -11.62 Q 317.2 -11.94 318.17 -12.47 Q 319.15 -12.99 320.03 -12.99 Q 320.92 -12.99 321.53 -12.68 Q 322.13 -12.36 322.53 -11.91 Q 322.93 -11.46 323.21 -10.62 Q 323.5 -9.79 323.64 -9.06 Q 323.79 -8.33 323.88 -7.13 L 323.88 -7.13 Q 323.97 -5.48 323.97 -2.94 L 323.97 -2.94 L 323.88 0.57 Q 323.88 0.78 322.89 0.97 Q 321.9 1.17 321.3 1.17 L 321.3 1.17 L 320.32 1.03 Q 320.61 -1.67 320.61 -4.21 Q 320.61 -6.75 320.28 -8.03 Q 319.95 -9.3 318.96 -9.3 Q 317.97 -9.3 317.36 -8.76 Q 316.74 -8.22 316.57 -7.68 L 316.57 -7.68 L 316.35 -7.16 L 316.35 -6.75 L 316.38 -5.64 L 316.38 -3.35 Q 316.38 -0.15 316.26 -0.03 L 316.26 -0.03 Q 315.86 0.37 314.91 0.57 Q 313.95 0.78 313.33 0.78 Q 312.72 0.78 312.72 0.69 Z M 327.92 -13.08 Q 327.78 -13.23 327.78 -14.38 Q 327.78 -15.54 328.04 -15.78 L 328.04 -15.78 Q 328.7 -15.81 329.64 -15.83 L 329.64 -15.83 Q 329.64 -17.58 329.55 -18.09 Q 329.46 -18.6 329.46 -18.69 L 329.46 -18.69 Q 329.48 -18.98 330.5 -19.38 L 330.5 -19.38 Q 331.51 -19.78 332.27 -19.78 L 332.27 -19.78 Q 332.29 -19.78 332.3 -19.78 L 332.3 -19.78 Q 333.08 -19.78 333.08 -19.64 L 333.08 -19.64 Q 333.02 -18.96 332.93 -15.86 L 332.93 -15.86 Q 335.19 -15.86 335.19 -15.78 L 335.19 -15.78 Q 335.19 -14.75 334.89 -13.96 Q 334.59 -13.17 334.31 -13.17 L 334.31 -13.17 L 332.9 -13.17 Q 332.85 -8.73 332.85 -5.95 Q 332.85 -3.18 332.93 -2.26 L 332.93 -2.26 Q 333.11 -0.7 334.16 0.29 L 334.16 0.29 Q 334.16 0.63 333.01 1.26 Q 331.86 1.89 330.84 1.89 L 330.84 1.89 Q 330.75 1.89 330.49 1.59 Q 330.24 1.29 329.95 0.6 Q 329.67 -0.09 329.59 -0.75 Q 329.52 -1.41 329.52 -5.46 Q 329.52 -9.51 329.61 -13.11 L 329.61 -13.11 L 327.92 -13.08 Z M 339.83 -1.08 Q 338.24 -2.86 338.24 -5.81 Q 338.24 -8.76 340.15 -10.94 Q 342.06 -13.11 345.5 -13.11 L 345.5 -13.11 Q 346.91 -13.11 348.1 -12.36 Q 349.28 -11.62 349.28 -9.74 Q 349.28 -7.87 347.65 -6.04 Q 346.02 -4.2 343.19 -3.24 L 343.19 -3.24 Q 343.19 -2.87 343.93 -2.65 Q 344.67 -2.43 345.39 -2.43 L 345.39 -2.43 Q 347.67 -2.43 348.99 -3.24 L 348.99 -3.24 Q 349.02 -3.27 349.08 -3.27 Q 349.14 -3.27 349.14 -2.7 L 349.14 -2.7 Q 349.14 -0.97 348.39 0 L 348.39 0 Q 347.36 0.69 344.4 0.69 Q 341.43 0.69 339.83 -1.08 Z M 341.75 -6.12 L 341.75 -6.12 Q 341.75 -5.7 341.87 -5.7 L 341.87 -5.7 Q 342.96 -5.73 344.36 -6.94 Q 345.77 -8.16 345.77 -9.54 L 345.77 -9.54 Q 345.77 -10.4 344.84 -10.42 L 344.84 -10.42 Q 343.61 -10.42 342.68 -9.16 Q 341.75 -7.9 341.75 -6.12 Z M 354.13 -4.26 L 354.13 -4.26 L 354.27 -15.12 Q 354.27 -17.49 354.2 -18.33 Q 354.13 -19.17 354.13 -19.23 L 354.13 -19.23 Q 354.13 -19.53 355.15 -19.91 Q 356.16 -20.3 356.93 -20.3 Q 357.71 -20.3 357.71 -20.19 L 357.71 -20.19 Q 357.56 -19.07 357.56 -12.39 L 357.56 -12.39 L 357.5 -5.04 Q 357.5 -2.97 357.56 -2.49 L 357.56 -2.49 Q 357.71 -1.17 358.43 -0.09 L 358.43 -0.09 Q 358.43 0.21 357.2 0.86 Q 355.97 1.52 355.1 1.52 L 355.1 1.52 Q 354.87 1.52 354.57 0.63 Q 354.27 -0.26 354.2 -0.93 Q 354.13 -1.6 354.13 -4.26 Z M 363.42 -4.26 L 363.42 -4.26 L 363.56 -15.12 Q 363.56 -17.49 363.49 -18.33 Q 363.42 -19.17 363.42 -19.23 L 363.42 -19.23 Q 363.42 -19.53 364.43 -19.91 Q 365.45 -20.3 366.22 -20.3 Q 367 -20.3 367 -20.19 L 367 -20.19 Q 366.85 -19.07 366.85 -12.39 L 366.85 -12.39 L 366.79 -5.04 Q 366.79 -2.97 366.85 -2.49 L 366.85 -2.49 Q 367 -1.17 367.72 -0.09 L 367.72 -0.09 Q 367.72 0.21 366.49 0.86 Q 365.26 1.52 364.39 1.52 L 364.39 1.52 Q 364.16 1.52 363.86 0.63 Q 363.56 -0.26 363.49 -0.93 Q 363.42 -1.6 363.42 -4.26 Z M 372.67 -14.38 Q 372.17 -14.91 372.17 -15.78 Q 372.17 -16.66 372.84 -17.29 Q 373.5 -17.92 374.33 -17.92 Q 375.15 -17.92 375.66 -17.37 Q 376.17 -16.83 376.17 -15.96 Q 376.17 -15.09 375.5 -14.47 Q 374.82 -13.86 374 -13.86 Q 373.17 -13.86 372.67 -14.38 Z M 372.46 -1.08 Q 372.39 -1.89 372.39 -6.54 Q 372.39 -11.19 372.6 -11.62 L 372.6 -11.62 Q 373.27 -12.14 374.94 -12.14 L 374.94 -12.14 Q 374.98 -12.14 375.03 -12.14 L 375.03 -12.14 Q 375.72 -12.14 375.86 -11.97 L 375.86 -11.97 L 375.83 -10.44 L 375.78 -5.58 Q 375.78 -3.24 375.91 -2.15 Q 376.05 -1.05 376.68 -0.09 L 376.68 -0.09 Q 376.68 0.21 375.45 0.86 Q 374.22 1.52 373.34 1.52 L 373.34 1.52 Q 373.08 1.52 372.81 0.63 Q 372.54 -0.26 372.46 -1.08 Z M 380.69 -4.86 L 380.69 -4.86 Q 380.69 -8.47 383 -10.8 Q 385.31 -13.14 389.64 -13.14 L 389.64 -13.14 Q 390.69 -13.14 390.68 -12.99 L 390.68 -12.99 Q 390.76 -12.48 390.76 -11.88 L 390.76 -11.88 L 390.73 -11.43 L 391.07 -11.43 Q 392.04 -11.43 392.36 -11.25 L 392.36 -11.25 L 392.36 -7.44 L 392.42 -0.34 Q 392.42 2.01 391.79 3.82 Q 391.16 5.64 390.26 6.64 Q 389.36 7.65 388.19 8.28 L 388.19 8.28 Q 386.3 9.33 384.38 9.33 L 384.38 9.33 Q 384.29 9.33 384.02 8.88 Q 383.75 8.42 383.5 7.65 Q 383.26 6.87 383.26 6.21 L 383.26 6.21 L 383.83 6.21 Q 384.44 6.21 384.99 6.11 Q 385.55 6.01 386.36 5.52 Q 387.17 5.04 387.74 4.26 Q 388.3 3.49 388.73 1.96 Q 389.15 0.42 389.15 -1.63 L 389.15 -1.63 Q 389.15 -1.74 389.12 -1.74 L 389.12 -1.74 L 389.03 -1.66 Q 387.77 0.29 385.09 0.29 L 385.09 0.29 Q 383.09 0.29 381.89 -1.3 Q 380.69 -2.89 380.69 -4.86 Z M 384.29 -5.7 L 384.29 -5.7 Q 384.29 -4.78 384.85 -4.08 Q 385.4 -3.38 386.46 -3.38 Q 387.53 -3.38 388.25 -4.23 Q 388.98 -5.07 388.98 -5.58 L 388.98 -5.58 Q 388.98 -8.99 389.09 -9.96 L 389.09 -9.96 L 388.46 -10.05 Q 386.54 -10.05 385.42 -8.8 Q 384.29 -7.56 384.29 -5.7 Z M 398.71 -1.08 Q 397.11 -2.86 397.11 -5.81 Q 397.11 -8.76 399.02 -10.94 Q 400.93 -13.11 404.37 -13.11 L 404.37 -13.11 Q 405.78 -13.11 406.97 -12.36 Q 408.15 -11.62 408.15 -9.74 Q 408.15 -7.87 406.52 -6.04 Q 404.89 -4.2 402.06 -3.24 L 402.06 -3.24 Q 402.06 -2.87 402.8 -2.65 Q 403.54 -2.43 404.26 -2.43 L 404.26 -2.43 Q 406.54 -2.43 407.86 -3.24 L 407.86 -3.24 Q 407.89 -3.27 407.95 -3.27 Q 408.01 -3.27 408.01 -2.7 L 408.01 -2.7 Q 408.01 -0.97 407.26 0 L 407.26 0 Q 406.23 0.69 403.27 0.69 Q 400.3 0.69 398.71 -1.08 Z M 400.62 -6.12 L 400.62 -6.12 Q 400.62 -5.7 400.74 -5.7 L 400.74 -5.7 Q 401.83 -5.73 403.23 -6.94 Q 404.64 -8.16 404.64 -9.54 L 404.64 -9.54 Q 404.64 -10.4 403.72 -10.42 L 403.72 -10.42 Q 402.48 -10.42 401.55 -9.16 Q 400.62 -7.9 400.62 -6.12 Z M 413 0.69 L 413 0.69 Q 413.21 -0.66 413.22 -3.75 L 413.22 -3.75 L 413.14 -10.5 Q 413.14 -12.36 413.28 -12.51 L 413.28 -12.51 Q 413.62 -12.85 414.43 -13.1 Q 415.23 -13.34 415.93 -13.34 Q 416.64 -13.34 416.64 -13.2 L 416.64 -13.2 Q 416.55 -12.48 416.55 -11.76 Q 416.55 -11.04 416.64 -11.04 L 416.64 -11.04 L 416.73 -11.1 Q 416.87 -11.31 417.18 -11.62 Q 417.49 -11.94 418.46 -12.47 Q 419.44 -12.99 420.32 -12.99 Q 421.21 -12.99 421.82 -12.68 Q 422.42 -12.36 422.82 -11.91 Q 423.21 -11.46 423.5 -10.62 Q 423.79 -9.79 423.93 -9.06 Q 424.08 -8.33 424.17 -7.13 L 424.17 -7.13 Q 424.25 -5.48 424.25 -2.94 L 424.25 -2.94 L 424.17 0.57 Q 424.17 0.78 423.18 0.97 Q 422.19 1.17 421.59 1.17 L 421.59 1.17 L 420.61 1.03 Q 420.9 -1.67 420.9 -4.21 Q 420.9 -6.75 420.57 -8.03 Q 420.24 -9.3 419.25 -9.3 Q 418.26 -9.3 417.65 -8.76 Q 417.03 -8.22 416.86 -7.68 L 416.86 -7.68 L 416.64 -7.16 L 416.64 -6.75 L 416.67 -5.64 L 416.67 -3.35 Q 416.67 -0.15 416.55 -0.03 L 416.55 -0.03 Q 416.15 0.37 415.19 0.57 Q 414.24 0.78 413.62 0.78 Q 413 0.78 413 0.69 Z M 428.96 -5.24 L 428.96 -5.24 Q 428.96 -8.94 431.44 -11.13 Q 433.91 -13.32 437.48 -13.32 L 437.48 -13.32 Q 438.17 -13.32 438.29 -13.29 L 438.29 -13.29 Q 438.48 -13.14 438.48 -11.81 L 438.48 -11.81 Q 438.48 -10.56 438.11 -10.28 L 438.11 -10.28 L 437.91 -10.28 Q 435.6 -10.28 434.16 -9.21 L 434.16 -9.21 Q 433.56 -8.76 433.1 -7.8 Q 432.65 -6.84 432.65 -5.49 Q 432.65 -4.15 433.46 -3.26 Q 434.28 -2.37 436.08 -2.37 L 436.08 -2.37 Q 437.48 -2.37 438.57 -2.92 L 438.57 -2.92 Q 438.69 -2.97 438.72 -2.97 L 438.72 -2.97 Q 438.95 -2.74 438.95 -1.35 Q 438.95 0.03 438.63 0.29 L 438.63 0.29 Q 437.63 0.86 435.68 0.86 L 435.68 0.86 Q 432.27 0.86 430.61 -0.87 Q 428.96 -2.61 428.96 -5.24 Z M 444.74 -1.08 Q 443.14 -2.86 443.14 -5.81 Q 443.14 -8.76 445.05 -10.94 Q 446.96 -13.11 450.41 -13.11 L 450.41 -13.11 Q 451.81 -13.11 453 -12.36 Q 454.19 -11.62 454.19 -9.74 Q 454.19 -7.87 452.55 -6.04 Q 450.92 -4.2 448.09 -3.24 L 448.09 -3.24 Q 448.09 -2.87 448.83 -2.65 Q 449.57 -2.43 450.29 -2.43 L 450.29 -2.43 Q 452.58 -2.43 453.89 -3.24 L 453.89 -3.24 Q 453.92 -3.27 453.98 -3.27 Q 454.04 -3.27 454.04 -2.7 L 454.04 -2.7 Q 454.04 -0.97 453.29 0 L 453.29 0 Q 452.27 0.69 449.3 0.69 Q 446.34 0.69 444.74 -1.08 Z M 446.66 -6.12 L 446.66 -6.12 Q 446.66 -5.7 446.77 -5.7 L 446.77 -5.7 Q 447.86 -5.73 449.26 -6.94 Q 450.67 -8.16 450.67 -9.54 L 450.67 -9.54 Q 450.67 -10.4 449.75 -10.42 L 449.75 -10.42 Q 448.52 -10.42 447.59 -9.16 Q 446.66 -7.9 446.66 -6.12 Z M 458.63 -18.93 L 458.44 -19.86 Q 458.98 -20.26 460.09 -20.25 Q 461.21 -20.24 461.75 -19.92 L 461.75 -19.92 Q 461 -16.2 461 -14.94 L 461 -14.94 Q 460.58 -14.74 460.08 -14.74 Q 459.58 -14.74 459.17 -14.94 L 459.17 -14.94 Q 459.17 -16.14 458.63 -18.93 L 458.63 -18.93 Z" stroke-linecap="round" />
</g>
</g>
</g>
<g transform="matrix(4.544656602491482 0 0 -4.544656602491482 794.103142245585 531.8252866951743)" id="shape-72db0cc7-d078-4ace-927f-0fe0d4c6ff44-logo"  >
<g style=""  paint-order="stroke"   >
		<g transform="matrix(1 0 0 1 0 0)" id="Layer_1"  >
<path style="stroke: none; stroke-width: 1; stroke-dasharray: none; stroke-linecap: butt; stroke-dashoffset: 0; stroke-linejoin: miter; stroke-miterlimit: 4; fill: rgb(2,24,130); fill-rule: nonzero; opacity: 1;"  paint-order="stroke"  transform=" translate(-100, -1)" d="M 0 1 C 0 1 0.8 1 2.2 0.9 C 3.7 0.9 5.800000000000001 0.8 8.5 0.8 C 14 0.7000000000000001 21.8 0.5 31.2 0.4 C 35.9 0.30000000000000004 41 0.30000000000000004 46.3 0.2 C 51.699999999999996 0.2 57.3 0.1 63.199999999999996 0.1 C 69.1 0.1 75.2 0 81.3 0 C 87.5 0 93.7 0 100 0 C 106.2 0 112.5 0 118.7 0 C 124.9 0 130.9 0.1 136.8 0.1 C 148.5 0.2 159.5 0.30000000000000004 168.8 0.4 C 178.20000000000002 0.5 186 0.7 191.5 0.8 C 194.2 0.8 196.4 0.9 197.9 0.9 C 199.2 1 200 1 200 1 C 200 1 199.2 1 197.8 1.1 C 196.3 1.1 194.20000000000002 1.2000000000000002 191.5 1.2000000000000002 C 186 1.3000000000000003 178.2 1.5000000000000002 168.8 1.6 C 159.4 1.7000000000000002 148.5 1.8 136.8 1.9000000000000001 C 130.9 1.9000000000000001 124.9 2 118.70000000000002 2 C 112.50000000000001 2 106.30000000000001 2 100.00000000000001 2 C 93.70000000000002 2 87.50000000000001 2 81.30000000000001 2 C 75.10000000000001 2 69.10000000000001 1.9 63.20000000000001 1.9 C 57.30000000000001 1.9 51.70000000000001 1.7999999999999998 46.30000000000001 1.7999999999999998 C 41 1.7 35.9 1.6 31.3 1.6 C 21.9 1.5 14.1 1.3 8.6 1.2 C 5.8999999999999995 1.2 3.6999999999999993 1.0999999999999999 2.3 1.0999999999999999 C 0.8 1 0 1 0 1 z" stroke-linecap="round" />
</g>
</g>
</g>
</svg>