<svg width="442" height="162" viewBox="0 0 442 162" fill="none" xmlns="http://www.w3.org/2000/svg">
<g clip-path="url(#clip0_1_60)">
<path d="M429.17 0H12C5.37258 0 0 5.37258 0 12V149.76C0 156.387 5.37258 161.76 12 161.76H429.17C435.797 161.76 441.17 156.387 441.17 149.76V12C441.17 5.37258 435.797 0 429.17 0Z" fill="#EBFFFB"/>
<path d="M80.4 125.28C70.72 125.28 62.85 117.41 62.85 107.73V99.86C62.85 99.07 62.2 98.42 61.41 98.42H53.54C43.86 98.42 35.99 90.55 35.99 80.87C35.99 71.19 43.86 63.32 53.54 63.32H61.41C62.2 63.32 62.85 62.67 62.85 61.88V54.01C62.85 44.33 70.72 36.46 80.4 36.46C90.08 36.46 97.95 44.33 97.95 54.01V61.88C97.95 62.67 98.6 63.32 99.39 63.32H107.26C116.94 63.32 124.81 71.19 124.81 80.87C124.81 90.55 116.94 98.42 107.26 98.42H99.39C98.6 98.42 97.95 99.07 97.95 99.86V107.73C97.95 117.41 90.08 125.28 80.4 125.28ZM53.55 71.57C48.42 71.57 44.24 75.75 44.24 80.88C44.24 86.01 48.42 90.19 53.55 90.19H61.42C66.76 90.19 71.1 94.53 71.1 99.87V107.74C71.1 112.87 75.28 117.05 80.41 117.05C85.54 117.05 89.72 112.87 89.72 107.74V99.87C89.72 94.53 94.06 90.19 99.4 90.19H107.27C112.4 90.19 116.58 86.01 116.58 80.88C116.58 75.75 112.4 71.57 107.27 71.57H99.4C94.06 71.57 89.72 67.23 89.72 61.89V54.02C89.72 48.89 85.54 44.71 80.41 44.71C75.28 44.71 71.1 48.89 71.1 54.02V61.89C71.1 67.23 66.76 71.57 61.42 71.57H53.55Z" fill="url(#paint0_linear_1_60)"/>
<path d="M125.76 47.15C125.76 47.46 125.51 47.71 125.2 47.71H122.46C119.12 47.71 116.4 50.43 116.4 53.77V56.51C116.4 56.82 116.15 57.07 115.84 57.07C115.53 57.07 115.28 56.82 115.28 56.51V53.77C115.28 50.43 112.56 47.71 109.22 47.71H106.48C106.17 47.71 105.92 47.46 105.92 47.15C105.92 46.84 106.17 46.59 106.48 46.59H109.22C112.56 46.59 115.28 43.87 115.28 40.53V37.79C115.28 37.48 115.53 37.23 115.84 37.23C116.15 37.23 116.4 37.48 116.4 37.79V40.53C116.4 43.87 119.12 46.59 122.46 46.59H125.2C125.51 46.59 125.76 46.84 125.76 47.15Z" fill="url(#paint1_linear_1_60)"/>
<path d="M80.88 91.64C79.73 91.64 78.58 91.2 77.7 90.32L69.99 82.61C68.23 80.85 68.23 78 69.99 76.25C71.75 74.49 74.6 74.49 76.35 76.25L80.88 80.78L85.41 76.25C87.17 74.49 90.02 74.49 91.77 76.25C93.53 78.01 93.53 80.86 91.77 82.61L84.06 90.32C83.18 91.2 82.03 91.64 80.88 91.64Z" fill="url(#paint2_linear_1_60)"/>
<path d="M148.07 64.51H151.85L164.2 97.29H164.41L176.65 64.51H180.22L166.19 101.29H162.09L148.06 64.51H148.07Z" fill="#9531FF"/>
<path d="M184.21 64.19H188.52V68.5H184.21V64.19ZM184.73 73.65H187.94V101.28H184.73V73.65Z" fill="#9531FF"/>
<path d="M193.4 73.65H197.02L206.42 97.29H206.63L215.4 73.65H218.81L208.04 101.28H204.63L193.39 73.65H193.4Z" fill="#9531FF"/>
<path d="M241.47 96.56V95.19H241.26C239.53 100.29 236.06 101.86 230.96 101.86C225.86 101.86 222.08 99.39 222.08 94.45V93.24C222.08 89.04 225.44 85.89 231.54 85.89H241.47V82.95C241.47 78.12 239.47 75.86 234.22 75.86C228.97 75.86 226.55 77.91 226.44 81.53L226.39 82.27H223.13C223.34 76.28 226.86 72.92 234.42 72.92C241.41 72.92 244.72 76.18 244.72 82.95V95.72C244.72 97.82 245.56 98.4 247.35 98.4H249.03V101.29C248.24 101.4 247.45 101.45 246.35 101.45C243.46 101.45 241.46 100.24 241.46 96.56H241.47ZM231.7 98.97C236.69 98.97 241.47 97.5 241.47 90.04V88.46H231.54C227.18 88.46 225.34 90.46 225.34 93.4V94.29C225.34 97.44 227.6 98.97 231.7 98.97Z" fill="#9531FF"/>
<path d="M299.57 82.06V101.29H289.59V84.74C289.59 81.85 288.28 80.54 285.39 80.54C282.5 80.54 281.19 81.85 281.19 84.74V101.29H271.21V84.74C271.21 81.85 269.9 80.54 267.01 80.54C264.12 80.54 262.81 81.85 262.81 84.74V101.29H252.83V72.92H262.81V79.22H263.34C264.76 74.44 267.02 72.13 272.38 72.13C277.74 72.13 280.42 75.02 280.94 79.22H281.47C282.89 74.44 285.41 72.13 290.77 72.13C296.13 72.13 299.6 74.97 299.6 82.06H299.57Z" fill="#9531FF"/>
<path d="M322.68 95.51H322.15C320.73 99.29 318.26 102.08 312.59 102.08C307.44 102.08 303.76 99.19 303.76 94.2V92.62C303.76 87.63 307.44 84.48 314.53 84.48H322.15V82.64C322.15 80.22 321.1 79.23 318.21 79.23C315.32 79.23 314.48 80.23 314.32 81.86L314.27 82.39H304.81C305.07 75.56 309.28 72.15 318.73 72.15C328.18 72.15 332.13 75.04 332.13 83.18V92.11C332.13 93.42 332.71 93.95 334.02 93.95H334.76V101.3C333.5 101.56 331.87 101.83 329.51 101.83C325.05 101.83 322.68 99.99 322.68 95.53V95.51ZM316.11 94.98C320.94 94.98 322.15 93.67 322.15 90.25V89.72H316.11C314.53 89.72 313.48 90.51 313.48 92.08V92.61C313.48 94.19 314.53 94.97 316.11 94.97V94.98Z" fill="#9531FF"/>
<path d="M338.18 62.93H348.16V69.23H338.18V62.93ZM338.18 72.91H348.16V101.28H338.18V72.91Z" fill="#9531FF"/>
<path d="M352.36 92.35H361.55L361.6 92.88C361.71 94.19 362.86 94.98 366.28 94.98C369.7 94.98 370.75 94.4 370.75 93.14V92.88C370.75 91.57 369.7 91.3 367.86 91.04L360.77 90.04C355.88 89.36 352.89 86.83 352.89 81.58V80.79C352.89 75.27 357.62 72.12 366.02 72.12C375.48 72.12 378.89 76.06 379.15 81.84H369.96L369.91 81.31C369.75 79.73 368.7 78.95 365.76 78.95C362.82 78.95 361.82 79.74 361.82 80.79V81.05C361.82 82.05 362.71 82.63 364.71 82.89L371.01 83.73C378.1 84.68 379.94 87.99 379.94 92.35V93.14C379.94 98.92 374.84 102.07 366.28 102.07C357.72 102.07 352.62 99.97 352.36 92.35Z" fill="#9531FF"/>
</g>
<defs>
<linearGradient id="paint0_linear_1_60" x1="42.79" y1="43.27" x2="111.99" y2="112.47" gradientUnits="userSpaceOnUse">
<stop stop-color="#12FFD7"/>
<stop offset="1" stop-color="#9531FF"/>
</linearGradient>
<linearGradient id="paint1_linear_1_60" x1="77.37" y1="8.68999" x2="146.57" y2="77.89" gradientUnits="userSpaceOnUse">
<stop stop-color="#12FFD7"/>
<stop offset="1" stop-color="#9531FF"/>
</linearGradient>
<linearGradient id="paint2_linear_1_60" x1="43.75" y1="42.31" x2="112.95" y2="111.5" gradientUnits="userSpaceOnUse">
<stop stop-color="#12FFD7"/>
<stop offset="1" stop-color="#9531FF"/>
</linearGradient>
<clipPath id="clip0_1_60">
<rect width="441.17" height="161.76" fill="white"/>
</clipPath>
</defs>
</svg>
